<mxfile host="Electron" agent="Mozilla/5.0 (Windows NT 10.0; Win64; x64) AppleWebKit/537.36 (KHTML, like Gecko) draw.io/24.7.17 Chrome/128.0.6613.36 Electron/32.0.1 Safari/537.36" version="24.7.17">
  <diagram name="Page-1" id="IlLIp6Uapo7Fj6eSEGdD">
    <mxGraphModel dx="1434" dy="844" grid="1" gridSize="10" guides="1" tooltips="1" connect="1" arrows="1" fold="1" page="1" pageScale="1" pageWidth="850" pageHeight="1100" math="0" shadow="0">
      <root>
        <mxCell id="0" />
        <mxCell id="1" parent="0" />
        <mxCell id="GwATnRZkgcx0kysO0u_j-1" value="" style="rounded=0;whiteSpace=wrap;html=1;fillColor=#1ba1e2;fontColor=#ffffff;strokeColor=#006EAF;" parent="1" vertex="1">
          <mxGeometry x="90" y="140" width="700" height="500" as="geometry" />
        </mxCell>
        <mxCell id="GwATnRZkgcx0kysO0u_j-2" value="&lt;font style=&quot;font-size: 19px;&quot;&gt;Client Progress Portal&lt;/font&gt;" style="rounded=0;whiteSpace=wrap;html=1;fillColor=#f0a30a;fontColor=#000000;strokeColor=#BD7000;" parent="1" vertex="1">
          <mxGeometry x="90" y="80" width="700" height="60" as="geometry" />
        </mxCell>
        <mxCell id="GwATnRZkgcx0kysO0u_j-3" value="Name" style="text;html=1;align=left;verticalAlign=middle;whiteSpace=wrap;rounded=0;" parent="1" vertex="1">
          <mxGeometry x="130" y="170" width="60" height="30" as="geometry" />
        </mxCell>
        <mxCell id="GwATnRZkgcx0kysO0u_j-4" value="" style="rounded=0;whiteSpace=wrap;html=1;fillColor=#f0a30a;fontColor=#000000;strokeColor=#BD7000;" parent="1" vertex="1">
          <mxGeometry x="240" y="170" width="180" height="30" as="geometry" />
        </mxCell>
        <mxCell id="GwATnRZkgcx0kysO0u_j-5" value="Id" style="text;html=1;align=left;verticalAlign=middle;whiteSpace=wrap;rounded=0;" parent="1" vertex="1">
          <mxGeometry x="460" y="170" width="60" height="30" as="geometry" />
        </mxCell>
        <mxCell id="GwATnRZkgcx0kysO0u_j-6" value="" style="rounded=0;whiteSpace=wrap;html=1;fillColor=#f0a30a;fontColor=#000000;strokeColor=#BD7000;" parent="1" vertex="1">
          <mxGeometry x="560" y="170" width="180" height="30" as="geometry" />
        </mxCell>
        <mxCell id="GwATnRZkgcx0kysO0u_j-7" value="Phone number" style="text;html=1;align=left;verticalAlign=middle;whiteSpace=wrap;rounded=0;" parent="1" vertex="1">
          <mxGeometry x="130" y="220" width="90" height="30" as="geometry" />
        </mxCell>
        <mxCell id="GwATnRZkgcx0kysO0u_j-8" value="" style="rounded=0;whiteSpace=wrap;html=1;fillColor=#f0a30a;fontColor=#000000;strokeColor=#BD7000;" parent="1" vertex="1">
          <mxGeometry x="240" y="220" width="180" height="30" as="geometry" />
        </mxCell>
        <mxCell id="GwATnRZkgcx0kysO0u_j-9" value="Course Name" style="text;html=1;align=left;verticalAlign=middle;whiteSpace=wrap;rounded=0;" parent="1" vertex="1">
          <mxGeometry x="460" y="220" width="80" height="30" as="geometry" />
        </mxCell>
        <mxCell id="GwATnRZkgcx0kysO0u_j-10" value="" style="rounded=0;whiteSpace=wrap;html=1;fillColor=#f0a30a;fontColor=#000000;strokeColor=#BD7000;" parent="1" vertex="1">
          <mxGeometry x="560" y="220" width="180" height="30" as="geometry" />
        </mxCell>
        <mxCell id="GwATnRZkgcx0kysO0u_j-11" value="Start Date" style="text;html=1;align=left;verticalAlign=middle;whiteSpace=wrap;rounded=0;" parent="1" vertex="1">
          <mxGeometry x="130" y="270" width="90" height="30" as="geometry" />
        </mxCell>
        <mxCell id="GwATnRZkgcx0kysO0u_j-12" value="" style="rounded=0;whiteSpace=wrap;html=1;fillColor=#f0a30a;fontColor=#000000;strokeColor=#BD7000;" parent="1" vertex="1">
          <mxGeometry x="240" y="270" width="180" height="30" as="geometry" />
        </mxCell>
        <mxCell id="GwATnRZkgcx0kysO0u_j-13" value="End Date" style="text;html=1;align=left;verticalAlign=middle;whiteSpace=wrap;rounded=0;" parent="1" vertex="1">
          <mxGeometry x="460" y="270" width="60" height="30" as="geometry" />
        </mxCell>
        <mxCell id="GwATnRZkgcx0kysO0u_j-14" value="" style="rounded=0;whiteSpace=wrap;html=1;fillColor=#f0a30a;fontColor=#000000;strokeColor=#BD7000;" parent="1" vertex="1">
          <mxGeometry x="560" y="270" width="180" height="30" as="geometry" />
        </mxCell>
        <mxCell id="GwATnRZkgcx0kysO0u_j-16" value="" style="verticalLabelPosition=bottom;verticalAlign=top;html=1;shape=mxgraph.basic.pie;startAngle=0.0314164790945006;endAngle=0.9;rotation=90;fillColor=#e3c800;fontColor=#000000;strokeColor=#B09500;" parent="1" vertex="1">
          <mxGeometry x="460" y="360" width="230" height="230" as="geometry" />
        </mxCell>
        <mxCell id="GwATnRZkgcx0kysO0u_j-17" value="" style="verticalLabelPosition=bottom;verticalAlign=top;html=1;shape=mxgraph.basic.pie;startAngle=0.1414764636803327;endAngle=0.9;fillColor=#60a917;fontColor=#ffffff;strokeColor=#2D7600;" parent="1" vertex="1">
          <mxGeometry x="460" y="360" width="230" height="230" as="geometry" />
        </mxCell>
        <mxCell id="GwATnRZkgcx0kysO0u_j-18" value="&lt;font style=&quot;font-size: 16px;&quot;&gt;Attendance Summary&lt;/font&gt;" style="text;html=1;align=left;verticalAlign=middle;whiteSpace=wrap;rounded=0;fillColor=#a0522d;fontColor=#ffffff;strokeColor=#6D1F00;" parent="1" vertex="1">
          <mxGeometry x="160" y="430" width="160" height="30" as="geometry" />
        </mxCell>
      </root>
    </mxGraphModel>
  </diagram>
</mxfile>
